<svg width="14" height="15" viewBox="0 0 14 15" fill="none" xmlns="http://www.w3.org/2000/svg">
<path d="M11.6845 6.05953L7.30953 10.4345C7.2689 10.4752 7.22065 10.5075 7.16754 10.5295C7.11442 10.5515 7.05749 10.5628 7 10.5628C6.9425 10.5628 6.88557 10.5515 6.83246 10.5295C6.77935 10.5075 6.7311 10.4752 6.69047 10.4345L2.31547 6.05953C2.23338 5.97744 2.18726 5.8661 2.18726 5.75C2.18726 5.6339 2.23338 5.52256 2.31547 5.44047C2.39756 5.35837 2.5089 5.31226 2.625 5.31226C2.7411 5.31226 2.85244 5.35837 2.93453 5.44047L7 9.50648L11.0655 5.44047C11.1061 5.39982 11.1544 5.36758 11.2075 5.34558C11.2606 5.32358 11.3175 5.31226 11.375 5.31226C11.4325 5.31226 11.4894 5.32358 11.5425 5.34558C11.5956 5.36758 11.6439 5.39982 11.6845 5.44047C11.7252 5.48112 11.7574 5.52937 11.7794 5.58248C11.8014 5.63559 11.8127 5.69251 11.8127 5.75C11.8127 5.80748 11.8014 5.86441 11.7794 5.91752C11.7574 5.97063 11.7252 6.01888 11.6845 6.05953Z" fill="#E1E1E1"/>
</svg>
