<svg width="128" height="128" viewBox="0 0 128 128" fill="none" xmlns="http://www.w3.org/2000/svg">
<g clip-path="url(#clip0_298_2)">
<path d="M31.995 39.2268C30.5881 39.2277 29.2126 38.8115 28.0423 38.0306C26.8721 37.2497 25.9597 36.1392 25.4206 34.8397C24.8816 33.5402 24.74 32.11 25.0139 30.7301C25.2877 29.3501 25.9647 28.0824 26.9592 27.0872C27.9536 26.092 29.2209 25.4142 30.6007 25.1393C31.9804 24.8645 33.4107 25.0051 34.7106 25.5432C36.0105 26.0814 37.1216 26.993 37.9033 28.1627C38.685 29.3324 39.1022 30.7077 39.1022 32.1145C39.1022 34 38.3536 35.8082 37.0209 37.1419C35.6882 38.4755 33.8804 39.2254 31.995 39.2268Z" fill="#0079D0"/>
<path d="M49.8055 4.50219e-05V14.2245H35.5562C29.8986 14.2245 24.4728 16.4719 20.4724 20.4724C16.4719 24.4728 14.2245 29.8986 14.2245 35.5562V49.7756H4.50219e-05V35.5562C-0.0122225 27.8621 2.48278 20.3736 7.10728 14.2245C9.13293 11.529 11.529 9.13293 14.2245 7.10728C20.3736 2.48278 27.8621 -0.0122225 35.5562 4.50219e-05H49.8055Z" fill="#0079D0"/>
<path d="M31.995 39.2268C30.5881 39.2277 29.2126 38.8115 28.0423 38.0306C26.8721 37.2497 25.9597 36.1392 25.4206 34.8397C24.8816 33.5402 24.74 32.11 25.0139 30.7301C25.2877 29.3501 25.9647 28.0824 26.9592 27.0872C27.9536 26.092 29.2209 25.4142 30.6007 25.1393C31.9804 24.8645 33.4107 25.0051 34.7106 25.5432C36.0105 26.0814 37.1216 26.993 37.9033 28.1627C38.685 29.3324 39.1022 30.7077 39.1022 32.1145C39.1022 34 38.3536 35.8082 37.0209 37.1419C35.6882 38.4755 33.8804 39.2254 31.995 39.2268Z" fill="#0079D0"/>
<path d="M102.885 97.6601C103.787 93.8371 101.419 90.0066 97.5963 89.1043C93.7733 88.202 89.9428 90.5696 89.0405 94.3926C88.1382 98.2155 90.5058 102.046 94.3288 102.948C98.1517 103.851 101.982 101.483 102.885 97.6601Z" fill="#0079D0"/>
<path d="M100.995 101.06C103.773 98.2824 103.773 93.7792 100.995 91.0017C98.218 88.2242 93.7148 88.2242 90.9373 91.0017C88.1598 93.7792 88.1598 98.2824 90.9373 101.06C93.7148 103.837 98.218 103.837 100.995 101.06Z" fill="#0079D0"/>
<path d="M39.1022 95.99C39.1022 97.3969 38.685 98.7722 37.9033 99.9419C37.1216 101.112 36.0105 102.023 34.7106 102.561C33.4107 103.099 31.9804 103.24 30.6007 102.965C29.2209 102.69 27.9536 102.013 26.9592 101.017C25.9647 100.022 25.2877 98.7545 25.0139 97.3745C24.74 95.9945 24.8816 94.5643 25.4206 93.2648C25.9597 91.9653 26.8721 90.8549 28.0423 90.074C29.2126 89.2931 30.5881 88.8768 31.995 88.8778C32.9288 88.8778 33.8534 89.0618 34.716 89.4193C35.5786 89.7768 36.3623 90.3007 37.0223 90.9612C37.6824 91.6217 38.2058 92.4058 38.5627 93.2687C38.9196 94.1315 39.1029 95.0563 39.1022 95.99Z" fill="#0079D0"/>
<path d="M39.1022 95.99C39.1022 97.3969 38.685 98.7722 37.9033 99.9419C37.1216 101.112 36.0105 102.023 34.7106 102.561C33.4107 103.099 31.9804 103.24 30.6007 102.965C29.2209 102.69 27.9536 102.013 26.9592 101.017C25.9647 100.022 25.2877 98.7545 25.0139 97.3745C24.74 95.9945 24.8816 94.5643 25.4206 93.2648C25.9597 91.9653 26.8721 90.8549 28.0423 90.074C29.2126 89.2931 30.5881 88.8768 31.995 88.8778C32.9288 88.8778 33.8534 89.0618 34.716 89.4193C35.5786 89.7768 36.3623 90.3007 37.0223 90.9612C37.6824 91.6217 38.2058 92.4058 38.5627 93.2687C38.9196 94.1315 39.1029 95.0563 39.1022 95.99Z" fill="#0079D0"/>
<path d="M96.0001 24.9027C97.4069 24.9017 98.7825 25.318 99.9528 26.0989C101.123 26.8798 102.035 27.9902 102.574 29.2897C103.114 30.5893 103.255 32.0194 102.981 33.3994C102.707 34.7794 102.03 36.0471 101.036 37.0423C100.041 38.0374 98.7742 38.7153 97.3944 38.9901C96.0146 39.265 94.5843 39.1244 93.2845 38.5862C91.9846 38.0481 90.8735 37.1365 90.0918 35.9668C89.3101 34.7971 88.8928 33.4218 88.8928 32.0149C88.8928 30.1295 89.6415 28.3212 90.9742 26.9876C92.3069 25.6539 94.1146 24.904 96.0001 24.9027Z" fill="#0079D0"/>
<path d="M103.097 32.0349C103.093 33.4413 102.672 34.815 101.888 35.9823C101.103 37.1496 99.9903 38.0581 98.6895 38.5929C97.3887 39.1277 95.9585 39.2648 94.5798 38.9869C93.2011 38.7091 91.9357 38.0286 90.9436 37.0317C89.9515 36.0347 89.2773 34.766 89.0062 33.386C88.7351 32.0059 88.8792 30.5764 89.4204 29.2783C89.9616 27.9801 90.8755 26.8715 92.0466 26.0927C93.2177 25.3139 94.5935 24.8998 95.9999 24.9027C96.9343 24.9047 97.8592 25.0908 98.7217 25.4503C99.5842 25.8098 100.367 26.3358 101.026 26.9982C101.686 27.6605 102.208 28.4462 102.563 29.3105C102.918 30.1747 103.1 31.1005 103.097 32.0349Z" fill="#0079D0"/>
<path d="M71.1123 0V29.1561L70.5146 29.0416C66.2098 28.2447 61.7953 28.2447 57.4905 29.0416L56.8928 29.1561V0H71.1123Z" fill="#0079D0"/>
<path d="M71.1123 98.8439V128H56.8928V98.8439L57.4905 98.9585C61.7953 99.7554 66.2098 99.7554 70.5146 98.9585L71.1123 98.8439Z" fill="#0079D0"/>
<path d="M29.0465 70.5195C29.0814 70.7188 29.1212 70.918 29.1611 71.1122H0V56.8878H29.1611C29.1212 57.082 29.0814 57.2813 29.0465 57.4805C28.2497 61.7903 28.2497 66.2097 29.0465 70.5195Z" fill="#0079D0"/>
<path d="M128 56.8878V71.1122H98.8439C98.8837 70.913 98.9236 70.7138 98.9584 70.5146C99.7553 66.2081 99.7553 61.7919 98.9584 57.4855C98.9236 57.2862 98.8837 57.087 98.8439 56.8878H128Z" fill="#0079D0"/>
<path d="M128 35.5561V49.7756H113.781V35.5561C113.781 29.8986 111.533 24.4728 107.533 20.4723C103.532 16.4719 98.1064 14.2244 92.4489 14.2244H78.2245V0H92.4489C97.118 -4.58191e-08 101.741 0.919722 106.055 2.70664C110.368 4.49357 114.288 7.11269 117.589 10.4144C120.89 13.7162 123.509 17.6359 125.295 21.9498C127.082 26.2636 128.001 30.887 128 35.5561Z" fill="#0079D0"/>
<path d="M128 78.2244V92.4439C128 101.873 124.255 110.916 117.588 117.584C110.921 124.252 101.878 127.999 92.4489 128H78.2245V113.776H92.4489C98.1064 113.776 103.532 111.528 107.533 107.528C111.533 103.527 113.781 98.1014 113.781 92.4439V78.2244H128Z" fill="#0079D0"/>
<path d="M49.8055 113.776V128H35.5562C27.8621 128.012 20.3736 125.517 14.2245 120.893C11.529 118.867 9.13293 116.471 7.10728 113.776C2.48278 107.626 -0.0122225 100.138 4.50219e-05 92.4439V78.2244H14.2245V92.4439C14.2245 98.1014 16.4719 103.527 20.4724 107.528C24.4728 111.528 29.8986 113.776 35.5562 113.776H49.8055Z" fill="#0079D0"/>
<path d="M91.5523 56.8978C91.5523 56.8978 91.5523 56.8978 91.5523 56.8679C90.2766 51.9535 87.711 47.4693 84.1208 43.8792C80.5307 40.289 76.0465 37.7234 71.1321 36.4476H71.1022C66.4445 35.2524 61.5604 35.2524 56.9027 36.4476H56.8728C51.9585 37.7234 47.4742 40.289 43.8841 43.8792C40.2939 47.4693 37.7283 51.9535 36.4526 56.8679C36.4526 56.8679 36.4526 56.8679 36.4526 56.8978C35.2573 61.5572 35.2573 66.4429 36.4526 71.1023C36.4526 71.1023 36.4526 71.1023 36.4526 71.1322C37.7283 76.0465 40.2939 80.5307 43.8841 84.1209C47.4742 87.711 51.9585 90.2767 56.8728 91.5524H56.9027C61.5604 92.7476 66.4445 92.7476 71.1022 91.5524H71.1321C76.0465 90.2767 80.5307 87.711 84.1208 84.1209C87.711 80.5307 90.2766 76.0465 91.5523 71.1322C91.5523 71.1322 91.5523 71.1322 91.5523 71.1023C92.7476 66.4429 92.7476 61.5572 91.5523 56.8978ZM77.6965 67.9048C77.0336 70.2358 75.7862 72.3589 74.0726 74.0726C72.3589 75.7863 70.2358 77.0337 67.9047 77.6965C65.3545 78.4271 62.6504 78.4271 60.1002 77.6965C57.7747 77.0334 55.6568 75.788 53.9468 74.078C52.2369 72.3681 50.9915 70.2502 50.3284 67.9247C49.5979 65.3728 49.5979 62.6671 50.3284 60.1152C50.9856 57.7823 52.2284 55.6562 53.9387 53.9389C55.649 52.2217 57.77 50.9702 60.1002 50.3035C62.6504 49.5729 65.3545 49.5729 67.9047 50.3035C70.2358 50.9663 72.3589 52.2137 74.0726 53.9274C75.7862 55.6411 77.0336 57.7642 77.6965 60.0953C78.4269 62.6472 78.4269 65.3528 77.6965 67.9048Z" fill="#0079D0"/>
<path d="M78.2244 64C78.2264 65.3209 78.042 66.6354 77.6765 67.9048C77.0155 70.2335 75.7711 72.3551 74.0611 74.0685C72.3511 75.782 70.2321 77.0307 67.9047 77.6965C65.3545 78.4271 62.6504 78.4271 60.1002 77.6965C57.7747 77.0334 55.6568 75.788 53.9468 74.078C52.2369 72.3681 50.9915 70.2502 50.3284 67.9247C49.5979 65.3728 49.5979 62.6671 50.3284 60.1152C50.9856 57.7823 52.2284 55.6562 53.9387 53.9389C55.649 52.2217 57.77 50.9702 60.1002 50.3035C62.6504 49.5729 65.3545 49.5729 67.9047 50.3035C70.2358 50.9663 72.3589 52.2137 74.0725 53.9274C75.7862 55.6411 77.0336 57.7642 77.6964 60.0953C78.0552 61.3655 78.2329 62.6801 78.2244 64Z" fill="black"/>
<path d="M39.1022 95.99C39.1022 97.3969 38.685 98.7722 37.9033 99.9419C37.1216 101.112 36.0105 102.023 34.7106 102.561C33.4107 103.099 31.9804 103.24 30.6007 102.965C29.2209 102.69 27.9536 102.013 26.9592 101.017C25.9647 100.022 25.2877 98.7545 25.0139 97.3745C24.74 95.9945 24.8816 94.5643 25.4206 93.2648C25.9597 91.9653 26.8721 90.8549 28.0423 90.074C29.2126 89.2931 30.5881 88.8768 31.995 88.8778C32.9288 88.8778 33.8534 89.0618 34.716 89.4193C35.5786 89.7768 36.3623 90.3007 37.0223 90.9612C37.6824 91.6217 38.2058 92.4058 38.5627 93.2687C38.9196 94.1315 39.1029 95.0563 39.1022 95.99Z" fill="#0079D0"/>
<path d="M100.995 101.06C103.773 98.2824 103.773 93.7792 100.995 91.0017C98.218 88.2242 93.7148 88.2242 90.9373 91.0017C88.1598 93.7792 88.1598 98.2824 90.9373 101.06C93.7148 103.837 98.218 103.837 100.995 101.06Z" fill="#0079D0"/>
<path d="M103.097 32.0349C103.093 33.4413 102.672 34.815 101.888 35.9823C101.103 37.1496 99.9903 38.0581 98.6895 38.5929C97.3887 39.1277 95.9585 39.2648 94.5798 38.9869C93.2011 38.7091 91.9357 38.0286 90.9436 37.0317C89.9515 36.0347 89.2773 34.766 89.0062 33.386C88.7351 32.0059 88.8792 30.5764 89.4204 29.2783C89.9616 27.9801 90.8755 26.8715 92.0466 26.0927C93.2177 25.3139 94.5935 24.8998 95.9999 24.9027C96.9343 24.9047 97.8592 25.0908 98.7217 25.4503C99.5842 25.8098 100.367 26.3358 101.026 26.9982C101.686 27.6605 102.208 28.4462 102.563 29.3105C102.918 30.1747 103.1 31.1005 103.097 32.0349Z" fill="#26A844"/>
<path d="M39.1022 32.1146C39.1032 33.5217 38.6868 34.8974 37.9057 36.0678C37.1246 37.2381 36.0138 38.1505 34.7141 38.6894C33.4143 39.2283 31.9838 39.3696 30.6037 39.0953C29.2236 38.8211 27.9559 38.1436 26.9609 37.1486C25.966 36.1537 25.2885 34.8859 25.0142 33.5058C24.74 32.1257 24.8812 30.6953 25.4201 29.3955C25.9591 28.0957 26.8714 26.985 28.0418 26.2039C29.2122 25.4228 30.5879 25.0063 31.995 25.0073C32.9283 25.0073 33.8525 25.1912 34.7148 25.5483C35.5771 25.9055 36.3606 26.429 37.0206 27.089C37.6806 27.749 38.2041 28.5325 38.5612 29.3947C38.9184 30.257 39.1022 31.1812 39.1022 32.1146Z" fill="#0079D0"/>
<path d="M64.1892 71.1122C64.1445 71.1171 64.0994 71.1171 64.0547 71.1122C63.9244 71.0864 63.8047 71.0222 63.7111 70.9279L53.2519 60.4688C53.1894 60.4064 53.1399 60.3322 53.106 60.2506C53.0722 60.169 53.0548 60.0815 53.0548 59.9932C53.0548 59.9048 53.0722 59.8173 53.106 59.7357C53.1399 59.6541 53.1894 59.58 53.2519 59.5175L57.2762 55.4335C57.4032 55.3069 57.5751 55.2359 57.7544 55.2359C57.9336 55.2359 58.1055 55.3069 58.2325 55.4335L64.1693 61.3753L78.5232 47.0213C78.5857 46.9588 78.6598 46.9092 78.7414 46.8754C78.823 46.8416 78.9105 46.8242 78.9989 46.8242C79.0872 46.8242 79.1747 46.8416 79.2563 46.8754C79.3379 46.9092 79.4121 46.9588 79.4745 47.0213L83.5337 51.0805C83.6587 51.2072 83.7288 51.3781 83.7288 51.5561C83.7288 51.7341 83.6587 51.905 83.5337 52.0318L64.6474 70.913C64.5269 71.0371 64.3622 71.1087 64.1892 71.1122Z" fill="#27A844"/>
</g>
<defs>
<clipPath id="clip0_298_2">
<rect width="128" height="128" fill="white"/>
</clipPath>
</defs>
</svg>
